<?xml version="1.0" encoding="UTF-8"?>
<!DOCTYPE svg PUBLIC "-//W3C//DTD SVG 1.1//EN" "http://www.w3.org/Graphics/SVG/1.1/DTD/svg11.dtd">
<!-- Creator: CorelDRAW 2021 (64-Bit) -->
<svg xmlns="http://www.w3.org/2000/svg" xml:space="preserve" width="4.88466in" height="4.79363in" version="1.1" style="shape-rendering:geometricPrecision; text-rendering:geometricPrecision; image-rendering:optimizeQuality; fill-rule:evenodd; clip-rule:evenodd"
viewBox="0 0 4884.67 4793.63"
 xmlns:xlink="http://www.w3.org/1999/xlink"
 xmlns:xodm="http://www.corel.com/coreldraw/odm/2003">
 <defs>
  <style type="text/css">
   <![CDATA[
    .fil1 {fill:#663399}
    .fil0 {fill:#9966FF}
    .fil2 {fill:white}
   ]]>
  </style>
 </defs>
 <g id="Layer_x0020_1">
  <metadata id="CorelCorpID_0Corel-Layer"/>
  <g id="_1844873032752">
   <path class="fil0" d="M2332.58 2629.15c-78,-44.16 -967.82,-933.1 -1144.88,-1110.9 -40.84,-41.02 -3.24,-17.37 -59.33,-44.09 0.3,295.7 2.44,591.56 1.22,887.26 -0.88,214.26 -40.65,245.21 85.89,358.16 77.61,69.27 138.6,148.2 216.83,221.7l908.67 865.17c37.59,36.93 60.96,72.85 99.4,110.83l345.71 322.21c46.74,42.28 56.75,62.15 100.83,109.43l346.24 321.33c133.91,129.38 73.57,120.25 324.39,119.3 238.52,-0.89 1230.94,15.74 1325.14,-12.27l1.99 -4729.06c-92.63,-25.09 -1169.98,-21.22 -1309.55,-6.43l-1242.54 2587.36z"/>
   <path class="fil1" d="M776.93 4749.51l1.21 -4098.03c58.92,28.52 53.07,30.98 100.6,86.8l677.43 656.87c122.25,122.71 674.36,695.7 772.19,739.79l381.24 -787.55c-77.89,-103.08 -890.02,-904.04 -1002.05,-1016.73 -86.04,-86.54 -158.17,-160.33 -244.84,-246.78 -119.76,-119.47 -230.68,-76.18 -433.8,-76.47 -335.54,-0.49 -681.84,-8.45 -1016.22,3.5 -26.74,425.47 -3.06,933.01 -2.12,1367.14l-1.31 2582.8c1.45,181.71 120.21,170.46 393.76,466.3l319.42 295.52c33.22,26.91 9.43,21.13 54.5,26.84z"/>
   <path class="fil2" d="M4110.93 4389.47l0.36 -3618.98c-4.76,3.8 -10.08,4.33 -11.91,12.12l-1100.92 2248.8c-136.42,271.93 -106.23,165.44 330.82,611.87l781.65 746.19z"/>
   <path class="fil1" d="M3221.64 3044.55l635.49 622.69c-1.04,-271.08 -1.49,-543.08 0.09,-814.14 2.02,-344.56 76.48,-322.04 -246.97,-586.6l-388.61 778.06z"/>
  </g>
 </g>
</svg>
